<mxfile host="app.diagrams.net" modified="2023-08-01T10:03:50.697Z" agent="Mozilla/5.0 (Windows NT 10.0; Win64; x64) AppleWebKit/537.36 (KHTML, like Gecko) Chrome/115.0.0.0 Safari/537.36 Edg/115.0.1901.188" etag="IhmeKSg_sMRBp8VfbYHy" version="21.6.5" type="device">
  <diagram id="De9Vc6kwO28veqgYgvxa" name="Page-1">
    <mxGraphModel dx="1632" dy="730" grid="1" gridSize="10" guides="1" tooltips="1" connect="1" arrows="1" fold="1" page="1" pageScale="1" pageWidth="1169" pageHeight="827" math="0" shadow="0">
      <root>
        <mxCell id="0" />
        <mxCell id="1" parent="0" />
        <mxCell id="mwzfVb9yJrqgt9v1KqDO-168" style="edgeStyle=orthogonalEdgeStyle;rounded=0;orthogonalLoop=1;jettySize=auto;html=1;exitX=1;exitY=0.5;exitDx=0;exitDy=0;entryX=0;entryY=0.5;entryDx=0;entryDy=0;" edge="1" parent="1" source="2" target="mwzfVb9yJrqgt9v1KqDO-155">
          <mxGeometry relative="1" as="geometry" />
        </mxCell>
        <mxCell id="2" value="" style="whiteSpace=wrap;html=1;aspect=fixed;" parent="1" vertex="1">
          <mxGeometry x="170" y="210" width="55" height="55" as="geometry" />
        </mxCell>
        <mxCell id="mwzfVb9yJrqgt9v1KqDO-167" style="edgeStyle=orthogonalEdgeStyle;rounded=0;orthogonalLoop=1;jettySize=auto;html=1;exitX=1;exitY=0.5;exitDx=0;exitDy=0;entryX=0;entryY=0.5;entryDx=0;entryDy=0;" edge="1" parent="1" source="mwzfVb9yJrqgt9v1KqDO-142" target="mwzfVb9yJrqgt9v1KqDO-156">
          <mxGeometry relative="1" as="geometry" />
        </mxCell>
        <mxCell id="mwzfVb9yJrqgt9v1KqDO-142" value="" style="whiteSpace=wrap;html=1;aspect=fixed;" vertex="1" parent="1">
          <mxGeometry x="170" y="145" width="55" height="55" as="geometry" />
        </mxCell>
        <mxCell id="mwzfVb9yJrqgt9v1KqDO-166" style="edgeStyle=orthogonalEdgeStyle;rounded=0;orthogonalLoop=1;jettySize=auto;html=1;exitX=1;exitY=0.5;exitDx=0;exitDy=0;entryX=0;entryY=0.5;entryDx=0;entryDy=0;" edge="1" parent="1" source="mwzfVb9yJrqgt9v1KqDO-143" target="mwzfVb9yJrqgt9v1KqDO-157">
          <mxGeometry relative="1" as="geometry" />
        </mxCell>
        <mxCell id="mwzfVb9yJrqgt9v1KqDO-143" value="" style="whiteSpace=wrap;html=1;aspect=fixed;" vertex="1" parent="1">
          <mxGeometry x="170" y="80" width="55" height="55" as="geometry" />
        </mxCell>
        <mxCell id="mwzfVb9yJrqgt9v1KqDO-169" style="edgeStyle=orthogonalEdgeStyle;rounded=0;orthogonalLoop=1;jettySize=auto;html=1;exitX=1;exitY=0.5;exitDx=0;exitDy=0;entryX=0;entryY=0.5;entryDx=0;entryDy=0;" edge="1" parent="1" source="mwzfVb9yJrqgt9v1KqDO-144" target="mwzfVb9yJrqgt9v1KqDO-158">
          <mxGeometry relative="1" as="geometry" />
        </mxCell>
        <mxCell id="mwzfVb9yJrqgt9v1KqDO-144" value="" style="whiteSpace=wrap;html=1;aspect=fixed;" vertex="1" parent="1">
          <mxGeometry x="170" y="275" width="55" height="55" as="geometry" />
        </mxCell>
        <mxCell id="mwzfVb9yJrqgt9v1KqDO-172" style="edgeStyle=orthogonalEdgeStyle;rounded=0;orthogonalLoop=1;jettySize=auto;html=1;exitX=1;exitY=0.5;exitDx=0;exitDy=0;entryX=0;entryY=0.5;entryDx=0;entryDy=0;" edge="1" parent="1" source="mwzfVb9yJrqgt9v1KqDO-145" target="mwzfVb9yJrqgt9v1KqDO-159">
          <mxGeometry relative="1" as="geometry" />
        </mxCell>
        <mxCell id="mwzfVb9yJrqgt9v1KqDO-145" value="" style="whiteSpace=wrap;html=1;aspect=fixed;" vertex="1" parent="1">
          <mxGeometry x="170" y="470" width="55" height="55" as="geometry" />
        </mxCell>
        <mxCell id="mwzfVb9yJrqgt9v1KqDO-171" style="edgeStyle=orthogonalEdgeStyle;rounded=0;orthogonalLoop=1;jettySize=auto;html=1;exitX=1;exitY=0.5;exitDx=0;exitDy=0;entryX=0;entryY=0.5;entryDx=0;entryDy=0;" edge="1" parent="1" source="mwzfVb9yJrqgt9v1KqDO-146" target="mwzfVb9yJrqgt9v1KqDO-160">
          <mxGeometry relative="1" as="geometry" />
        </mxCell>
        <mxCell id="mwzfVb9yJrqgt9v1KqDO-146" value="" style="whiteSpace=wrap;html=1;aspect=fixed;" vertex="1" parent="1">
          <mxGeometry x="170" y="405" width="55" height="55" as="geometry" />
        </mxCell>
        <mxCell id="mwzfVb9yJrqgt9v1KqDO-170" style="edgeStyle=orthogonalEdgeStyle;rounded=0;orthogonalLoop=1;jettySize=auto;html=1;exitX=1;exitY=0.5;exitDx=0;exitDy=0;entryX=0;entryY=0.5;entryDx=0;entryDy=0;" edge="1" parent="1" source="mwzfVb9yJrqgt9v1KqDO-147" target="mwzfVb9yJrqgt9v1KqDO-161">
          <mxGeometry relative="1" as="geometry" />
        </mxCell>
        <mxCell id="mwzfVb9yJrqgt9v1KqDO-147" value="" style="whiteSpace=wrap;html=1;aspect=fixed;" vertex="1" parent="1">
          <mxGeometry x="170" y="340" width="55" height="55" as="geometry" />
        </mxCell>
        <mxCell id="mwzfVb9yJrqgt9v1KqDO-173" style="edgeStyle=orthogonalEdgeStyle;rounded=0;orthogonalLoop=1;jettySize=auto;html=1;exitX=1;exitY=0.5;exitDx=0;exitDy=0;entryX=0;entryY=0.5;entryDx=0;entryDy=0;" edge="1" parent="1" source="mwzfVb9yJrqgt9v1KqDO-148" target="mwzfVb9yJrqgt9v1KqDO-162">
          <mxGeometry relative="1" as="geometry" />
        </mxCell>
        <mxCell id="mwzfVb9yJrqgt9v1KqDO-148" value="" style="whiteSpace=wrap;html=1;aspect=fixed;" vertex="1" parent="1">
          <mxGeometry x="170" y="540" width="55" height="55" as="geometry" />
        </mxCell>
        <mxCell id="mwzfVb9yJrqgt9v1KqDO-175" style="edgeStyle=orthogonalEdgeStyle;rounded=0;orthogonalLoop=1;jettySize=auto;html=1;exitX=1;exitY=0.5;exitDx=0;exitDy=0;entryX=0;entryY=0.5;entryDx=0;entryDy=0;" edge="1" parent="1" source="mwzfVb9yJrqgt9v1KqDO-149" target="mwzfVb9yJrqgt9v1KqDO-163">
          <mxGeometry relative="1" as="geometry" />
        </mxCell>
        <mxCell id="mwzfVb9yJrqgt9v1KqDO-149" value="" style="whiteSpace=wrap;html=1;aspect=fixed;" vertex="1" parent="1">
          <mxGeometry x="170" y="670" width="55" height="55" as="geometry" />
        </mxCell>
        <mxCell id="mwzfVb9yJrqgt9v1KqDO-174" style="edgeStyle=orthogonalEdgeStyle;rounded=0;orthogonalLoop=1;jettySize=auto;html=1;exitX=1;exitY=0.5;exitDx=0;exitDy=0;entryX=0;entryY=0.5;entryDx=0;entryDy=0;" edge="1" parent="1" source="mwzfVb9yJrqgt9v1KqDO-150" target="mwzfVb9yJrqgt9v1KqDO-164">
          <mxGeometry relative="1" as="geometry" />
        </mxCell>
        <mxCell id="mwzfVb9yJrqgt9v1KqDO-150" value="" style="whiteSpace=wrap;html=1;aspect=fixed;" vertex="1" parent="1">
          <mxGeometry x="170" y="605" width="55" height="55" as="geometry" />
        </mxCell>
        <mxCell id="mwzfVb9yJrqgt9v1KqDO-176" style="edgeStyle=orthogonalEdgeStyle;rounded=0;orthogonalLoop=1;jettySize=auto;html=1;exitX=1;exitY=0.5;exitDx=0;exitDy=0;entryX=0;entryY=0.5;entryDx=0;entryDy=0;" edge="1" parent="1" source="mwzfVb9yJrqgt9v1KqDO-151" target="mwzfVb9yJrqgt9v1KqDO-165">
          <mxGeometry relative="1" as="geometry" />
        </mxCell>
        <mxCell id="mwzfVb9yJrqgt9v1KqDO-151" value="" style="whiteSpace=wrap;html=1;aspect=fixed;" vertex="1" parent="1">
          <mxGeometry x="170" y="740" width="55" height="55" as="geometry" />
        </mxCell>
        <mxCell id="mwzfVb9yJrqgt9v1KqDO-152" value="Ground Truth" style="whiteSpace=wrap;html=1;aspect=fixed;" vertex="1" parent="1">
          <mxGeometry x="170" y="10" width="55" height="55" as="geometry" />
        </mxCell>
        <mxCell id="mwzfVb9yJrqgt9v1KqDO-154" value="Input sequence" style="text;strokeColor=none;align=center;fillColor=none;html=1;verticalAlign=middle;whiteSpace=wrap;rounded=0;rotation=0;" vertex="1" parent="1">
          <mxGeometry x="40" y="385" width="140" height="30" as="geometry" />
        </mxCell>
        <mxCell id="mwzfVb9yJrqgt9v1KqDO-180" style="edgeStyle=elbowEdgeStyle;rounded=0;orthogonalLoop=1;jettySize=auto;html=1;exitX=1;exitY=0.5;exitDx=0;exitDy=0;" edge="1" parent="1" source="mwzfVb9yJrqgt9v1KqDO-155">
          <mxGeometry relative="1" as="geometry">
            <mxPoint x="630" y="400" as="targetPoint" />
          </mxGeometry>
        </mxCell>
        <mxCell id="mwzfVb9yJrqgt9v1KqDO-155" value="" style="whiteSpace=wrap;html=1;aspect=fixed;" vertex="1" parent="1">
          <mxGeometry x="450" y="210" width="55" height="55" as="geometry" />
        </mxCell>
        <mxCell id="mwzfVb9yJrqgt9v1KqDO-179" style="edgeStyle=elbowEdgeStyle;rounded=0;orthogonalLoop=1;jettySize=auto;html=1;exitX=1;exitY=0.5;exitDx=0;exitDy=0;" edge="1" parent="1" source="mwzfVb9yJrqgt9v1KqDO-156">
          <mxGeometry relative="1" as="geometry">
            <mxPoint x="630" y="400" as="targetPoint" />
          </mxGeometry>
        </mxCell>
        <mxCell id="mwzfVb9yJrqgt9v1KqDO-156" value="" style="whiteSpace=wrap;html=1;aspect=fixed;" vertex="1" parent="1">
          <mxGeometry x="450" y="145" width="55" height="55" as="geometry" />
        </mxCell>
        <mxCell id="mwzfVb9yJrqgt9v1KqDO-178" style="edgeStyle=orthogonalEdgeStyle;rounded=0;orthogonalLoop=1;jettySize=auto;html=1;exitX=1;exitY=0.5;exitDx=0;exitDy=0;entryX=0;entryY=0.5;entryDx=0;entryDy=0;" edge="1" parent="1" source="mwzfVb9yJrqgt9v1KqDO-157" target="mwzfVb9yJrqgt9v1KqDO-177">
          <mxGeometry relative="1" as="geometry" />
        </mxCell>
        <mxCell id="mwzfVb9yJrqgt9v1KqDO-157" value="" style="whiteSpace=wrap;html=1;aspect=fixed;" vertex="1" parent="1">
          <mxGeometry x="450" y="80" width="55" height="55" as="geometry" />
        </mxCell>
        <mxCell id="mwzfVb9yJrqgt9v1KqDO-181" style="edgeStyle=elbowEdgeStyle;rounded=0;orthogonalLoop=1;jettySize=auto;html=1;exitX=1;exitY=0.5;exitDx=0;exitDy=0;" edge="1" parent="1" source="mwzfVb9yJrqgt9v1KqDO-158">
          <mxGeometry relative="1" as="geometry">
            <mxPoint x="630" y="400" as="targetPoint" />
          </mxGeometry>
        </mxCell>
        <mxCell id="mwzfVb9yJrqgt9v1KqDO-158" value="" style="whiteSpace=wrap;html=1;aspect=fixed;" vertex="1" parent="1">
          <mxGeometry x="450" y="275" width="55" height="55" as="geometry" />
        </mxCell>
        <mxCell id="mwzfVb9yJrqgt9v1KqDO-184" style="edgeStyle=orthogonalEdgeStyle;rounded=0;orthogonalLoop=1;jettySize=auto;html=1;exitX=1;exitY=0.5;exitDx=0;exitDy=0;entryX=0;entryY=0.5;entryDx=0;entryDy=0;" edge="1" parent="1" source="mwzfVb9yJrqgt9v1KqDO-159" target="mwzfVb9yJrqgt9v1KqDO-177">
          <mxGeometry relative="1" as="geometry" />
        </mxCell>
        <mxCell id="mwzfVb9yJrqgt9v1KqDO-159" value="" style="whiteSpace=wrap;html=1;aspect=fixed;" vertex="1" parent="1">
          <mxGeometry x="450" y="470" width="55" height="55" as="geometry" />
        </mxCell>
        <mxCell id="mwzfVb9yJrqgt9v1KqDO-183" style="edgeStyle=elbowEdgeStyle;rounded=0;orthogonalLoop=1;jettySize=auto;html=1;exitX=1;exitY=0.5;exitDx=0;exitDy=0;" edge="1" parent="1" source="mwzfVb9yJrqgt9v1KqDO-160">
          <mxGeometry relative="1" as="geometry">
            <mxPoint x="630" y="400" as="targetPoint" />
          </mxGeometry>
        </mxCell>
        <mxCell id="mwzfVb9yJrqgt9v1KqDO-160" value="" style="whiteSpace=wrap;html=1;aspect=fixed;" vertex="1" parent="1">
          <mxGeometry x="450" y="405" width="55" height="55" as="geometry" />
        </mxCell>
        <mxCell id="mwzfVb9yJrqgt9v1KqDO-182" style="edgeStyle=elbowEdgeStyle;rounded=0;orthogonalLoop=1;jettySize=auto;html=1;exitX=1;exitY=0.5;exitDx=0;exitDy=0;" edge="1" parent="1" source="mwzfVb9yJrqgt9v1KqDO-161">
          <mxGeometry relative="1" as="geometry">
            <mxPoint x="630" y="400" as="targetPoint" />
          </mxGeometry>
        </mxCell>
        <mxCell id="mwzfVb9yJrqgt9v1KqDO-161" value="" style="whiteSpace=wrap;html=1;aspect=fixed;" vertex="1" parent="1">
          <mxGeometry x="450" y="340" width="55" height="55" as="geometry" />
        </mxCell>
        <mxCell id="mwzfVb9yJrqgt9v1KqDO-185" style="edgeStyle=elbowEdgeStyle;rounded=0;orthogonalLoop=1;jettySize=auto;html=1;exitX=1;exitY=0.5;exitDx=0;exitDy=0;" edge="1" parent="1" source="mwzfVb9yJrqgt9v1KqDO-162">
          <mxGeometry relative="1" as="geometry">
            <mxPoint x="630" y="400" as="targetPoint" />
          </mxGeometry>
        </mxCell>
        <mxCell id="mwzfVb9yJrqgt9v1KqDO-162" value="" style="whiteSpace=wrap;html=1;aspect=fixed;" vertex="1" parent="1">
          <mxGeometry x="450" y="540" width="55" height="55" as="geometry" />
        </mxCell>
        <mxCell id="mwzfVb9yJrqgt9v1KqDO-187" style="edgeStyle=elbowEdgeStyle;rounded=0;orthogonalLoop=1;jettySize=auto;html=1;exitX=1;exitY=0.5;exitDx=0;exitDy=0;" edge="1" parent="1" source="mwzfVb9yJrqgt9v1KqDO-163">
          <mxGeometry relative="1" as="geometry">
            <mxPoint x="630" y="400" as="targetPoint" />
          </mxGeometry>
        </mxCell>
        <mxCell id="mwzfVb9yJrqgt9v1KqDO-163" value="" style="whiteSpace=wrap;html=1;aspect=fixed;" vertex="1" parent="1">
          <mxGeometry x="450" y="670" width="55" height="55" as="geometry" />
        </mxCell>
        <mxCell id="mwzfVb9yJrqgt9v1KqDO-186" style="edgeStyle=orthogonalEdgeStyle;rounded=0;orthogonalLoop=1;jettySize=auto;html=1;exitX=1;exitY=0.5;exitDx=0;exitDy=0;entryX=0;entryY=0.5;entryDx=0;entryDy=0;" edge="1" parent="1" source="mwzfVb9yJrqgt9v1KqDO-164" target="mwzfVb9yJrqgt9v1KqDO-177">
          <mxGeometry relative="1" as="geometry" />
        </mxCell>
        <mxCell id="mwzfVb9yJrqgt9v1KqDO-164" value="" style="whiteSpace=wrap;html=1;aspect=fixed;" vertex="1" parent="1">
          <mxGeometry x="450" y="605" width="55" height="55" as="geometry" />
        </mxCell>
        <mxCell id="mwzfVb9yJrqgt9v1KqDO-188" style="edgeStyle=orthogonalEdgeStyle;rounded=0;orthogonalLoop=1;jettySize=auto;html=1;exitX=1;exitY=0.5;exitDx=0;exitDy=0;entryX=0;entryY=0.5;entryDx=0;entryDy=0;" edge="1" parent="1" source="mwzfVb9yJrqgt9v1KqDO-165" target="mwzfVb9yJrqgt9v1KqDO-177">
          <mxGeometry relative="1" as="geometry" />
        </mxCell>
        <mxCell id="mwzfVb9yJrqgt9v1KqDO-165" value="" style="whiteSpace=wrap;html=1;aspect=fixed;" vertex="1" parent="1">
          <mxGeometry x="450" y="740" width="55" height="55" as="geometry" />
        </mxCell>
        <mxCell id="mwzfVb9yJrqgt9v1KqDO-191" style="edgeStyle=orthogonalEdgeStyle;rounded=0;orthogonalLoop=1;jettySize=auto;html=1;exitX=1;exitY=0.5;exitDx=0;exitDy=0;entryX=0;entryY=0.5;entryDx=0;entryDy=0;" edge="1" parent="1" source="mwzfVb9yJrqgt9v1KqDO-177" target="mwzfVb9yJrqgt9v1KqDO-189">
          <mxGeometry relative="1" as="geometry" />
        </mxCell>
        <mxCell id="mwzfVb9yJrqgt9v1KqDO-177" value="&lt;font style=&quot;font-size: 14px;&quot;&gt;Avg&lt;/font&gt;" style="ellipse;whiteSpace=wrap;html=1;" vertex="1" parent="1">
          <mxGeometry x="630" y="360" width="80" height="80" as="geometry" />
        </mxCell>
        <mxCell id="mwzfVb9yJrqgt9v1KqDO-189" value="Ground Truth&lt;br&gt;Recon." style="whiteSpace=wrap;html=1;aspect=fixed;" vertex="1" parent="1">
          <mxGeometry x="770" y="372.5" width="55" height="55" as="geometry" />
        </mxCell>
      </root>
    </mxGraphModel>
  </diagram>
</mxfile>
